<?xml version="1.0" standalone="no"?>
<!DOCTYPE svg PUBLIC "-//W3C//DTD SVG 20010904//EN"
 "http://www.w3.org/TR/2001/REC-SVG-20010904/DTD/svg10.dtd">
<svg version="1.0" xmlns="http://www.w3.org/2000/svg"
 width="400.000000pt" height="400.000000pt" viewBox="0 0 400.000000 400.000000"
 preserveAspectRatio="xMidYMid meet">
<metadata>
Created by potrace 1.14, written by Peter Selinger 2001-2017
</metadata>
<g transform="translate(0.000000,400.000000) scale(0.100000,-0.100000)"
fill="#000000" stroke="none">
<path d="M0 2000 l0 -2000 815 0 815 0 0 59 c0 33 5 63 10 66 5 3 10 17 10 31
0 13 5 24 10 24 6 0 10 6 10 13 0 7 18 31 40 52 22 21 40 45 40 51 0 7 10 21
23 31 24 20 37 39 64 93 15 30 18 62 18 214 0 135 -3 180 -12 184 -18 5 -16
64 2 98 8 16 15 36 15 45 0 9 9 24 20 34 11 10 20 24 20 31 0 7 10 25 23 41
25 32 44 61 54 83 4 8 21 29 40 47 18 17 33 36 33 40 0 5 18 27 40 48 22 21
40 44 40 50 0 13 126 135 157 153 13 7 58 12 102 12 44 0 82 4 85 9 3 4 33 11
68 15 34 3 64 10 67 14 3 4 24 16 46 26 39 18 185 151 185 169 0 5 11 18 25
29 14 11 25 30 25 44 0 13 4 32 9 42 5 9 13 58 18 107 4 50 13 91 18 91 25 4
55 17 55 25 0 4 16 11 35 15 19 3 38 10 41 15 3 5 16 9 30 9 13 0 24 4 24 9 0
5 25 13 55 16 30 4 58 11 61 16 3 5 25 9 49 9 24 0 47 5 50 10 3 6 18 10 33
10 15 0 40 7 56 15 21 11 65 15 177 15 83 0 149 -4 149 -9 0 -5 38 -12 85 -16
47 -4 88 -11 91 -16 8 -14 44 -11 60 5 12 12 14 149 14 920 l0 906 -2000 0
-2000 0 0 -2000z m1638 1223 c34 -3 62 -9 62 -14 0 -5 12 -9 26 -9 24 0 78
-19 114 -41 8 -4 31 -16 50 -26 19 -9 37 -19 40 -22 8 -10 43 -29 87 -51 24
-11 71 -47 107 -80 35 -33 68 -60 72 -60 5 0 83 -74 174 -165 91 -91 161 -165
156 -165 -8 0 39 -59 87 -107 12 -13 18 -23 13 -23 -5 0 -1 -9 9 -20 21 -23
42 -57 51 -82 3 -10 10 -18 14 -18 4 0 10 -8 14 -17 3 -10 15 -31 26 -48 11
-16 23 -38 26 -47 4 -10 10 -18 15 -18 5 0 9 -11 9 -24 0 -13 6 -26 13 -28 9
-4 12 -46 12 -166 0 -153 -1 -162 -22 -184 -13 -14 -23 -30 -23 -36 0 -7 -7
-15 -15 -18 -8 -4 -15 -11 -15 -17 0 -16 -71 -87 -87 -87 -7 0 -13 -4 -13 -10
0 -5 -6 -10 -14 -10 -7 0 -19 -7 -26 -15 -7 -8 -24 -15 -39 -15 -15 0 -32 -5
-37 -10 -14 -14 -258 -14 -262 0 -2 5 -17 10 -32 10 -16 0 -31 4 -35 10 -3 5
-12 7 -20 3 -9 -3 -27 3 -43 13 -42 29 -72 43 -72 36 0 -4 -4 -2 -8 4 -7 10
-74 44 -87 44 -4 0 -15 8 -24 18 -9 11 -29 23 -46 29 -16 5 -34 19 -40 31 -6
14 -16 20 -27 16 -9 -2 -20 1 -25 8 -9 14 -36 33 -68 47 -11 5 -29 18 -39 30
-11 11 -23 21 -27 21 -19 0 -349 348 -349 368 0 4 -11 19 -25 32 -14 13 -25
29 -25 37 0 7 -4 13 -9 13 -5 0 -11 8 -15 18 -3 9 -17 35 -30 57 -14 22 -23
47 -20 56 2 9 -2 22 -11 29 -8 7 -15 18 -15 25 0 8 -5 15 -12 17 -6 2 -13 31
-15 64 -2 32 -9 69 -15 82 -8 16 -8 28 0 45 6 12 13 43 16 69 5 43 21 84 37
98 3 3 10 19 16 35 5 17 19 34 31 40 15 7 20 16 16 30 -3 13 1 27 10 34 9 8
16 19 16 25 0 13 51 66 64 66 5 0 21 11 38 25 16 14 40 25 54 25 13 0 24 3 24
8 0 14 45 27 85 24 22 -2 68 -6 103 -9z m-1048 -1433 c0 -5 16 -10 35 -10 19
0 35 -4 35 -9 0 -4 16 -11 36 -14 52 -9 223 -95 254 -129 9 -9 28 -20 42 -23
14 -4 36 -18 49 -31 12 -13 26 -24 30 -24 4 0 35 -29 70 -65 34 -36 67 -65 73
-65 6 0 65 -54 130 -119 66 -66 123 -118 127 -116 4 3 9 -4 12 -15 3 -11 12
-20 21 -20 10 0 16 -9 16 -24 0 -13 8 -27 18 -30 36 -14 62 -31 62 -41 0 -6
17 -28 38 -48 21 -21 45 -53 52 -72 8 -19 17 -35 21 -35 4 0 10 -13 14 -30 4
-16 11 -32 16 -35 5 -4 9 -19 9 -35 0 -16 5 -32 10 -35 6 -3 10 -25 11 -48 0
-23 1 -55 1 -72 2 -58 -6 -147 -14 -151 -4 -3 -8 -16 -8 -30 0 -13 -4 -24 -9
-24 -5 0 -12 -13 -16 -28 -7 -34 -146 -174 -192 -193 -18 -8 -33 -17 -33 -21
0 -4 -18 -11 -40 -14 -22 -4 -40 -10 -40 -15 0 -12 -207 -12 -214 0 -3 5 -33
12 -66 16 -33 4 -63 11 -66 16 -3 5 -16 9 -30 9 -13 0 -24 5 -24 10 0 6 -5 10
-11 10 -10 0 -35 10 -109 43 -14 7 -38 21 -55 33 -16 11 -37 24 -45 28 -22 10
-51 28 -87 53 -17 13 -40 23 -51 23 -11 0 -29 11 -40 25 -11 14 -24 25 -29 25
-5 0 -20 11 -33 25 -13 14 -28 25 -34 25 -14 0 -146 131 -146 145 0 5 -31 44
-70 86 -38 42 -67 78 -65 81 3 3 -6 15 -20 28 -14 13 -25 31 -25 40 0 9 -9 25
-19 34 -11 10 -23 31 -26 47 -4 16 -10 29 -13 29 -12 0 -31 53 -38 103 -4 26
-11 47 -15 47 -12 0 -11 266 0 288 6 9 13 34 16 55 3 20 10 37 15 37 6 0 10 6
10 13 0 8 11 24 25 37 14 13 25 28 25 34 0 14 81 96 96 96 6 0 19 9 29 20 10
11 25 20 34 20 9 0 29 7 45 15 15 8 46 15 67 15 21 0 41 5 44 10 3 6 26 10 51
10 24 0 44 -4 44 -10z"/>
<path d="M1723 2798 c-2 -5 -17 -8 -34 -8 -39 0 -108 -68 -116 -116 -3 -19
-10 -34 -14 -34 -5 0 -9 -34 -9 -75 0 -41 4 -75 10 -75 5 0 12 -17 16 -37 4
-21 15 -45 26 -54 10 -9 18 -25 18 -35 0 -11 48 -68 113 -132 104 -103 131
-126 177 -148 8 -4 22 -16 31 -26 9 -10 18 -15 21 -13 3 3 13 -4 23 -15 10
-11 28 -20 40 -20 11 0 30 -7 41 -15 10 -8 29 -15 42 -15 12 0 22 -4 22 -10 0
-5 13 -10 29 -10 17 0 33 5 36 10 3 6 22 10 42 10 62 0 173 81 173 127 0 13 5
23 10 23 6 0 10 15 10 34 0 19 -4 38 -10 41 -5 3 -10 17 -10 31 0 13 -4 24 -9
24 -5 0 -12 13 -16 29 -3 16 -15 37 -26 47 -10 9 -19 23 -19 29 0 7 -11 21
-25 31 -14 10 -25 24 -25 30 0 5 -13 23 -30 39 -16 16 -30 34 -30 40 0 6 -16
26 -35 45 -19 19 -35 39 -35 46 0 6 -9 14 -21 17 -11 3 -23 15 -26 26 -3 12
-17 22 -33 26 -16 3 -34 13 -41 22 -8 8 -36 26 -64 39 -27 14 -57 28 -65 33
-63 36 -174 59 -187 39z"/>
<path d="M611 1305 c-35 -19 -69 -59 -77 -89 -3 -15 -10 -29 -15 -32 -12 -7
-11 -134 1 -134 6 0 10 -9 10 -21 0 -11 10 -35 23 -52 30 -43 45 -68 56 -92 5
-11 41 -51 80 -89 65 -63 89 -83 131 -102 8 -4 24 -17 36 -28 25 -26 48 -41
97 -63 20 -10 37 -21 37 -25 0 -3 13 -9 30 -13 16 -4 32 -11 35 -16 4 -5 19
-9 35 -9 16 0 32 -4 35 -10 8 -13 75 -13 75 0 0 6 14 10 30 10 35 0 101 54
125 103 17 34 21 147 5 147 -5 0 -10 11 -10 24 0 13 -7 29 -15 36 -8 7 -15 16
-15 21 0 5 -18 25 -40 45 -22 20 -40 42 -40 48 0 14 -91 106 -105 106 -5 0
-25 15 -44 34 -85 80 -139 126 -148 126 -5 0 -18 9 -27 19 -10 11 -31 23 -47
26 -16 4 -29 11 -29 16 0 5 -11 9 -25 9 -14 0 -25 5 -25 10 0 15 -151 11 -179
-5z"/>
<path d="M3952 1877 c-39 -41 -25 -77 29 -77 16 0 19 7 19 50 0 57 -13 64 -48
27z"/>
<path d="M3833 1544 c-42 -46 -25 -94 33 -94 49 0 62 60 21 98 -28 26 -26 26
-54 -4z"/>
<path d="M2725 1260 c-3 -5 -21 -10 -39 -10 -18 0 -53 -11 -77 -25 -24 -14
-52 -28 -61 -31 -10 -4 -18 -10 -18 -15 0 -5 -6 -9 -13 -9 -13 0 -157 -140
-157 -153 0 -5 -15 -22 -34 -40 -19 -18 -37 -43 -41 -57 -4 -14 -11 -27 -14
-30 -14 -10 -41 -79 -41 -103 0 -14 -4 -29 -10 -32 -5 -3 -10 -19 -10 -35 0
-16 -4 -31 -9 -35 -11 -6 -8 -90 3 -120 21 -54 33 -73 70 -112 25 -26 49 -43
63 -43 13 0 23 -4 23 -10 0 -13 57 -13 65 0 3 6 17 10 31 10 13 0 24 5 24 11
0 6 8 8 18 5 12 -4 29 5 52 29 19 19 40 35 47 35 7 0 13 6 13 13 0 7 23 35 50
62 28 27 50 54 50 60 0 6 14 24 30 40 17 16 30 33 30 38 0 5 8 17 18 26 10 9
22 23 25 31 4 8 16 29 27 45 11 17 23 37 27 45 3 8 15 22 25 31 10 9 18 20 18
24 0 4 6 21 14 38 23 53 29 71 27 84 -1 6 3 14 9 18 13 8 13 82 0 90 -6 4 -9
9 -6 13 7 13 -30 66 -60 83 -16 10 -48 18 -71 18 -23 1 -45 6 -48 11 -3 6 -15
10 -25 10 -10 0 -22 -4 -25 -10z m100 -109 c25 -14 31 -25 33 -61 2 -23 -2
-48 -7 -53 -6 -6 -11 -20 -11 -31 0 -28 -51 -129 -89 -177 -17 -21 -31 -41
-31 -45 0 -8 -47 -65 -95 -116 -19 -20 -35 -41 -35 -45 0 -12 -53 -63 -66 -63
-5 0 -18 -11 -28 -25 -10 -14 -29 -25 -40 -25 -12 0 -27 -5 -34 -12 -9 -9 -15
-9 -24 0 -7 7 -23 12 -36 12 -13 0 -37 14 -54 30 -30 30 -30 31 -26 127 2 66
7 98 16 101 6 2 12 14 12 27 0 12 7 28 15 35 8 7 15 19 15 26 0 8 5 14 10 14
6 0 10 6 10 13 0 8 11 24 25 37 14 13 25 30 25 37 0 16 128 143 145 143 6 0
22 11 35 25 13 14 31 25 41 25 10 0 21 5 24 10 11 17 137 11 170 -9z"/>
<path d="M3774 1169 c-20 -22 -14 -59 11 -73 11 -6 23 -15 26 -19 3 -4 20 0
37 10 25 14 32 25 32 49 0 17 -6 37 -14 43 -19 16 -74 10 -92 -10z"/>
<path d="M3671 786 c-26 -28 -27 -50 -1 -76 39 -39 110 -15 110 37 0 24 -38
59 -66 61 -12 0 -31 -10 -43 -22z"/>
<path d="M3503 476 c-26 -12 -31 -50 -9 -72 8 -8 30 -14 48 -14 27 0 35 5 46
29 12 27 11 32 -7 50 -23 23 -44 25 -78 7z"/>
<path d="M3281 196 c-19 -23 -10 -69 17 -81 12 -5 22 -13 22 -17 0 -11 41 13
56 31 9 11 8 22 -6 45 -19 35 -68 47 -89 22z"/>
</g>
</svg>
